<svg width="205" height="126" viewBox="0 0 205 126" fill="none" xmlns="http://www.w3.org/2000/svg">
<mask id="path-1-outside-1_6_4" maskUnits="userSpaceOnUse" x="0.276855" y="0.545441" width="204" height="125" fill="black">
<rect fill="white" x="0.276855" y="0.545441" width="204" height="125"/>
<path d="M10.6364 59.7273C10.6364 48.2727 12.1213 37.7424 15.0909 28.1364C18.0909 18.5 22.3637 9.63635 27.9091 1.54544H37.3637C35.1819 4.54544 33.1364 8.24241 31.2273 12.6364C29.3485 17 27.697 21.803 26.2728 27.0454C24.8485 32.2576 23.7273 37.6515 22.9091 43.2273C22.1213 48.803 21.7273 54.303 21.7273 59.7273C21.7273 66.9394 22.4243 74.2576 23.8182 81.6818C25.2122 89.1061 27.0909 96 29.4546 102.364C31.8182 108.727 34.4546 113.909 37.3637 117.909H27.9091C22.3637 109.818 18.0909 100.97 15.0909 91.3636C12.1213 81.7273 10.6364 71.1818 10.6364 59.7273Z"/>
<path d="M89.9132 24.8182H79.9132C78.7314 23.6667 77.0041 22.4697 74.7314 21.2273C72.489 19.9545 69.8526 18.7727 66.8223 17.6818C63.792 16.5606 60.5041 15.6515 56.9587 14.9545C53.4435 14.2576 49.8223 13.9091 46.095 13.9091C42.3678 13.9091 38.7466 14.2576 35.2314 14.9545C31.6859 15.6515 28.3981 16.5606 25.3678 17.6818C22.3375 18.7727 19.7011 19.9545 17.4587 21.2273C15.1859 22.4697 13.4587 23.6667 12.2769 24.8182H2.27686C4.00413 22.3636 6.30716 20.0151 9.18595 17.7727C12.0344 15.5303 15.3526 13.5303 19.1405 11.7727C22.9284 10.0151 27.095 8.63635 31.6405 7.63635C36.1859 6.60605 41.0041 6.0909 46.095 6.0909C51.1556 6.0909 55.9435 6.5909 60.4587 7.5909C65.0041 8.5909 69.1708 9.96969 72.9587 11.7273C76.7769 13.4545 80.1253 15.4394 83.0041 17.6818C85.8829 19.9242 88.186 22.303 89.9132 24.8182Z"/>
<path d="M58.546 47C54.6975 47 51.1823 46.0606 48.0005 44.1818C44.849 42.303 42.3338 39.7879 40.455 36.6364C38.5763 33.4545 37.6369 29.9394 37.6369 26.0909C37.6369 22.2424 38.5763 18.7424 40.455 15.5909C42.3338 12.4091 44.849 9.87878 48.0005 7.99999C51.1823 6.1212 54.6975 5.18181 58.546 5.18181C62.3944 5.18181 65.8944 6.1212 69.046 7.99999C72.2278 9.87878 74.7581 12.4091 76.6369 15.5909C78.5156 18.7424 79.455 22.2424 79.455 26.0909C79.455 29.9394 78.5156 33.4545 76.6369 36.6364C74.7581 39.7879 72.2278 42.303 69.046 44.1818C65.8944 46.0606 62.3944 47 58.546 47ZM58.546 37.9091C60.7278 37.9091 62.7126 37.3788 64.5005 36.3182C66.2884 35.2576 67.7126 33.8333 68.7732 32.0454C69.8338 30.2576 70.3641 28.2727 70.3641 26.0909C70.3641 23.9091 69.8338 21.9242 68.7732 20.1364C67.7126 18.3485 66.2884 16.9242 64.5005 15.8636C62.7126 14.803 60.7278 14.2727 58.546 14.2727C56.3641 14.2727 54.3793 14.803 52.5914 15.8636C50.8035 16.9242 49.3793 18.3485 48.3187 20.1364C47.2581 21.9242 46.7278 23.9091 46.7278 26.0909C46.7278 28.2727 47.2581 30.2576 48.3187 32.0454C49.3793 33.8333 50.8035 35.2576 52.5914 36.3182C54.3793 37.3788 56.3641 37.9091 58.546 37.9091Z"/>
<path d="M124.118 105.545H134.118C132.482 107.909 130.27 110.197 127.482 112.409C124.694 114.652 121.421 116.667 117.664 118.455C113.906 120.242 109.724 121.652 105.118 122.682C100.512 123.742 95.5728 124.273 90.3 124.273C85.0879 124.273 80.1788 123.742 75.5728 122.682C70.9667 121.652 66.7849 120.242 63.0273 118.455C59.2394 116.667 55.9516 114.652 53.1637 112.409C50.3455 110.197 48.1182 107.909 46.4819 105.545H56.4819C57.7546 106.758 59.5576 108 61.8909 109.273C64.194 110.576 66.8758 111.758 69.9364 112.818C72.9667 113.909 76.2243 114.788 79.7091 115.455C83.194 116.121 86.7243 116.455 90.3 116.455C93.9364 116.455 97.5122 116.106 101.027 115.409C104.542 114.742 107.83 113.864 110.891 112.773C113.952 111.682 116.618 110.5 118.891 109.227C121.194 107.955 122.936 106.727 124.118 105.545Z"/>
<path d="M106.569 37H103.842V27H106.569C113.478 27 119.175 28.5757 123.66 31.7273C128.145 34.8485 131.478 38.9848 133.66 44.1364C135.842 49.2576 136.933 54.8182 136.933 60.8182V66.4545C136.933 72.4545 135.842 78.0303 133.66 83.1818C131.478 88.303 128.145 92.4394 123.66 95.5909C119.175 98.7121 113.478 100.273 106.569 100.273C101.236 100.273 96.5843 99.1818 92.6146 97C88.6449 94.7879 85.5237 91.8333 83.251 88.1364C80.9782 84.4091 79.7207 80.2727 79.4782 75.7273H91.2964C91.66 79.6364 93.16 83.0454 95.7964 85.9545C98.4328 88.8333 102.024 90.2727 106.569 90.2727C111.236 90.2727 114.872 89.0757 117.478 86.6818C120.084 84.2576 121.918 81.2273 122.978 77.5909C124.039 73.9242 124.569 70.2121 124.569 66.4545V60.8182C124.569 57 124.054 53.2727 123.024 49.6364C121.993 45.9697 120.175 42.9545 117.569 40.5909C114.963 38.197 111.296 37 106.569 37ZM113.478 5.90908V37H100.933V5.90908H113.478Z"/>
<path d="M189.323 24.8182H179.323C178.141 23.6667 176.414 22.4697 174.141 21.2273C171.899 19.9545 169.263 18.7727 166.232 17.6818C163.202 16.5606 159.914 15.6515 156.369 14.9545C152.854 14.2576 149.232 13.9091 145.505 13.9091C141.778 13.9091 138.157 14.2576 134.641 14.9545C131.096 15.6515 127.808 16.5606 124.778 17.6818C121.747 18.7727 119.111 19.9545 116.869 21.2273C114.596 22.4697 112.869 23.6667 111.687 24.8182H101.687C103.414 22.3636 105.717 20.0151 108.596 17.7727C111.444 15.5303 114.763 13.5303 118.55 11.7727C122.338 10.0151 126.505 8.63635 131.05 7.63635C135.596 6.60605 140.414 6.0909 145.505 6.0909C150.566 6.0909 155.354 6.5909 159.869 7.5909C164.414 8.5909 168.581 9.96969 172.369 11.7273C176.187 13.4545 179.535 15.4394 182.414 17.6818C185.293 19.9242 187.596 22.303 189.323 24.8182Z"/>
<path d="M157.956 47C154.107 47 150.592 46.0606 147.41 44.1818C144.259 42.303 141.744 39.7879 139.865 36.6364C137.986 33.4545 137.047 29.9394 137.047 26.0909C137.047 22.2424 137.986 18.7424 139.865 15.5909C141.744 12.4091 144.259 9.87878 147.41 7.99999C150.592 6.1212 154.107 5.18181 157.956 5.18181C161.804 5.18181 165.304 6.1212 168.456 7.99999C171.638 9.87878 174.168 12.4091 176.047 15.5909C177.926 18.7424 178.865 22.2424 178.865 26.0909C178.865 29.9394 177.926 33.4545 176.047 36.6364C174.168 39.7879 171.638 42.303 168.456 44.1818C165.304 46.0606 161.804 47 157.956 47ZM157.956 37.9091C160.138 37.9091 162.123 37.3788 163.91 36.3182C165.698 35.2576 167.123 33.8333 168.183 32.0454C169.244 30.2576 169.774 28.2727 169.774 26.0909C169.774 23.9091 169.244 21.9242 168.183 20.1364C167.123 18.3485 165.698 16.9242 163.91 15.8636C162.123 14.803 160.138 14.2727 157.956 14.2727C155.774 14.2727 153.789 14.803 152.001 15.8636C150.214 16.9242 148.789 18.3485 147.729 20.1364C146.668 21.9242 146.138 23.9091 146.138 26.0909C146.138 28.2727 146.668 30.2576 147.729 32.0454C148.789 33.8333 150.214 35.2576 152.001 36.3182C153.789 37.3788 155.774 37.9091 157.956 37.9091Z"/>
<path d="M203.077 59.7273C203.077 71.1818 201.577 81.7273 198.577 91.3636C195.608 100.97 191.35 109.818 185.805 117.909H176.35C178.532 114.909 180.562 111.212 182.441 106.818C184.35 102.455 186.017 97.6667 187.441 92.4545C188.865 87.2121 189.971 81.803 190.759 76.2273C191.577 70.6212 191.986 65.1212 191.986 59.7273C191.986 52.5151 191.289 45.197 189.896 37.7727C188.502 30.3485 186.623 23.4545 184.259 17.0909C181.896 10.7273 179.259 5.54544 176.35 1.54544H185.805C191.35 9.63635 195.608 18.5 198.577 28.1364C201.577 37.7424 203.077 48.2727 203.077 59.7273Z"/>
</mask>
<path d="M10.6364 59.7273C10.6364 48.2727 12.1213 37.7424 15.0909 28.1364C18.0909 18.5 22.3637 9.63635 27.9091 1.54544H37.3637C35.1819 4.54544 33.1364 8.24241 31.2273 12.6364C29.3485 17 27.697 21.803 26.2728 27.0454C24.8485 32.2576 23.7273 37.6515 22.9091 43.2273C22.1213 48.803 21.7273 54.303 21.7273 59.7273C21.7273 66.9394 22.4243 74.2576 23.8182 81.6818C25.2122 89.1061 27.0909 96 29.4546 102.364C31.8182 108.727 34.4546 113.909 37.3637 117.909H27.9091C22.3637 109.818 18.0909 100.97 15.0909 91.3636C12.1213 81.7273 10.6364 71.1818 10.6364 59.7273Z" stroke="black" stroke-width="2" mask="url(#path-1-outside-1_6_4)"/>
<path d="M89.9132 24.8182H79.9132C78.7314 23.6667 77.0041 22.4697 74.7314 21.2273C72.489 19.9545 69.8526 18.7727 66.8223 17.6818C63.792 16.5606 60.5041 15.6515 56.9587 14.9545C53.4435 14.2576 49.8223 13.9091 46.095 13.9091C42.3678 13.9091 38.7466 14.2576 35.2314 14.9545C31.6859 15.6515 28.3981 16.5606 25.3678 17.6818C22.3375 18.7727 19.7011 19.9545 17.4587 21.2273C15.1859 22.4697 13.4587 23.6667 12.2769 24.8182H2.27686C4.00413 22.3636 6.30716 20.0151 9.18595 17.7727C12.0344 15.5303 15.3526 13.5303 19.1405 11.7727C22.9284 10.0151 27.095 8.63635 31.6405 7.63635C36.1859 6.60605 41.0041 6.0909 46.095 6.0909C51.1556 6.0909 55.9435 6.5909 60.4587 7.5909C65.0041 8.5909 69.1708 9.96969 72.9587 11.7273C76.7769 13.4545 80.1253 15.4394 83.0041 17.6818C85.8829 19.9242 88.186 22.303 89.9132 24.8182Z" stroke="black" stroke-width="2" mask="url(#path-1-outside-1_6_4)"/>
<path d="M58.546 47C54.6975 47 51.1823 46.0606 48.0005 44.1818C44.849 42.303 42.3338 39.7879 40.455 36.6364C38.5763 33.4545 37.6369 29.9394 37.6369 26.0909C37.6369 22.2424 38.5763 18.7424 40.455 15.5909C42.3338 12.4091 44.849 9.87878 48.0005 7.99999C51.1823 6.1212 54.6975 5.18181 58.546 5.18181C62.3944 5.18181 65.8944 6.1212 69.046 7.99999C72.2278 9.87878 74.7581 12.4091 76.6369 15.5909C78.5156 18.7424 79.455 22.2424 79.455 26.0909C79.455 29.9394 78.5156 33.4545 76.6369 36.6364C74.7581 39.7879 72.2278 42.303 69.046 44.1818C65.8944 46.0606 62.3944 47 58.546 47ZM58.546 37.9091C60.7278 37.9091 62.7126 37.3788 64.5005 36.3182C66.2884 35.2576 67.7126 33.8333 68.7732 32.0454C69.8338 30.2576 70.3641 28.2727 70.3641 26.0909C70.3641 23.9091 69.8338 21.9242 68.7732 20.1364C67.7126 18.3485 66.2884 16.9242 64.5005 15.8636C62.7126 14.803 60.7278 14.2727 58.546 14.2727C56.3641 14.2727 54.3793 14.803 52.5914 15.8636C50.8035 16.9242 49.3793 18.3485 48.3187 20.1364C47.2581 21.9242 46.7278 23.9091 46.7278 26.0909C46.7278 28.2727 47.2581 30.2576 48.3187 32.0454C49.3793 33.8333 50.8035 35.2576 52.5914 36.3182C54.3793 37.3788 56.3641 37.9091 58.546 37.9091Z" stroke="black" stroke-width="2" mask="url(#path-1-outside-1_6_4)"/>
<path d="M124.118 105.545H134.118C132.482 107.909 130.27 110.197 127.482 112.409C124.694 114.652 121.421 116.667 117.664 118.455C113.906 120.242 109.724 121.652 105.118 122.682C100.512 123.742 95.5728 124.273 90.3 124.273C85.0879 124.273 80.1788 123.742 75.5728 122.682C70.9667 121.652 66.7849 120.242 63.0273 118.455C59.2394 116.667 55.9516 114.652 53.1637 112.409C50.3455 110.197 48.1182 107.909 46.4819 105.545H56.4819C57.7546 106.758 59.5576 108 61.8909 109.273C64.194 110.576 66.8758 111.758 69.9364 112.818C72.9667 113.909 76.2243 114.788 79.7091 115.455C83.194 116.121 86.7243 116.455 90.3 116.455C93.9364 116.455 97.5122 116.106 101.027 115.409C104.542 114.742 107.83 113.864 110.891 112.773C113.952 111.682 116.618 110.5 118.891 109.227C121.194 107.955 122.936 106.727 124.118 105.545Z" stroke="black" stroke-width="2" mask="url(#path-1-outside-1_6_4)"/>
<path d="M106.569 37H103.842V27H106.569C113.478 27 119.175 28.5757 123.66 31.7273C128.145 34.8485 131.478 38.9848 133.66 44.1364C135.842 49.2576 136.933 54.8182 136.933 60.8182V66.4545C136.933 72.4545 135.842 78.0303 133.66 83.1818C131.478 88.303 128.145 92.4394 123.66 95.5909C119.175 98.7121 113.478 100.273 106.569 100.273C101.236 100.273 96.5843 99.1818 92.6146 97C88.6449 94.7879 85.5237 91.8333 83.251 88.1364C80.9782 84.4091 79.7207 80.2727 79.4782 75.7273H91.2964C91.66 79.6364 93.16 83.0454 95.7964 85.9545C98.4328 88.8333 102.024 90.2727 106.569 90.2727C111.236 90.2727 114.872 89.0757 117.478 86.6818C120.084 84.2576 121.918 81.2273 122.978 77.5909C124.039 73.9242 124.569 70.2121 124.569 66.4545V60.8182C124.569 57 124.054 53.2727 123.024 49.6364C121.993 45.9697 120.175 42.9545 117.569 40.5909C114.963 38.197 111.296 37 106.569 37ZM113.478 5.90908V37H100.933V5.90908H113.478Z" stroke="black" stroke-width="2" mask="url(#path-1-outside-1_6_4)"/>
<path d="M189.323 24.8182H179.323C178.141 23.6667 176.414 22.4697 174.141 21.2273C171.899 19.9545 169.263 18.7727 166.232 17.6818C163.202 16.5606 159.914 15.6515 156.369 14.9545C152.854 14.2576 149.232 13.9091 145.505 13.9091C141.778 13.9091 138.157 14.2576 134.641 14.9545C131.096 15.6515 127.808 16.5606 124.778 17.6818C121.747 18.7727 119.111 19.9545 116.869 21.2273C114.596 22.4697 112.869 23.6667 111.687 24.8182H101.687C103.414 22.3636 105.717 20.0151 108.596 17.7727C111.444 15.5303 114.763 13.5303 118.55 11.7727C122.338 10.0151 126.505 8.63635 131.05 7.63635C135.596 6.60605 140.414 6.0909 145.505 6.0909C150.566 6.0909 155.354 6.5909 159.869 7.5909C164.414 8.5909 168.581 9.96969 172.369 11.7273C176.187 13.4545 179.535 15.4394 182.414 17.6818C185.293 19.9242 187.596 22.303 189.323 24.8182Z" stroke="black" stroke-width="2" mask="url(#path-1-outside-1_6_4)"/>
<path d="M157.956 47C154.107 47 150.592 46.0606 147.41 44.1818C144.259 42.303 141.744 39.7879 139.865 36.6364C137.986 33.4545 137.047 29.9394 137.047 26.0909C137.047 22.2424 137.986 18.7424 139.865 15.5909C141.744 12.4091 144.259 9.87878 147.41 7.99999C150.592 6.1212 154.107 5.18181 157.956 5.18181C161.804 5.18181 165.304 6.1212 168.456 7.99999C171.638 9.87878 174.168 12.4091 176.047 15.5909C177.926 18.7424 178.865 22.2424 178.865 26.0909C178.865 29.9394 177.926 33.4545 176.047 36.6364C174.168 39.7879 171.638 42.303 168.456 44.1818C165.304 46.0606 161.804 47 157.956 47ZM157.956 37.9091C160.138 37.9091 162.123 37.3788 163.91 36.3182C165.698 35.2576 167.123 33.8333 168.183 32.0454C169.244 30.2576 169.774 28.2727 169.774 26.0909C169.774 23.9091 169.244 21.9242 168.183 20.1364C167.123 18.3485 165.698 16.9242 163.91 15.8636C162.123 14.803 160.138 14.2727 157.956 14.2727C155.774 14.2727 153.789 14.803 152.001 15.8636C150.214 16.9242 148.789 18.3485 147.729 20.1364C146.668 21.9242 146.138 23.9091 146.138 26.0909C146.138 28.2727 146.668 30.2576 147.729 32.0454C148.789 33.8333 150.214 35.2576 152.001 36.3182C153.789 37.3788 155.774 37.9091 157.956 37.9091Z" stroke="black" stroke-width="2" mask="url(#path-1-outside-1_6_4)"/>
<path d="M203.077 59.7273C203.077 71.1818 201.577 81.7273 198.577 91.3636C195.608 100.97 191.35 109.818 185.805 117.909H176.35C178.532 114.909 180.562 111.212 182.441 106.818C184.35 102.455 186.017 97.6667 187.441 92.4545C188.865 87.2121 189.971 81.803 190.759 76.2273C191.577 70.6212 191.986 65.1212 191.986 59.7273C191.986 52.5151 191.289 45.197 189.896 37.7727C188.502 30.3485 186.623 23.4545 184.259 17.0909C181.896 10.7273 179.259 5.54544 176.35 1.54544H185.805C191.35 9.63635 195.608 18.5 198.577 28.1364C201.577 37.7424 203.077 48.2727 203.077 59.7273Z" stroke="black" stroke-width="2" mask="url(#path-1-outside-1_6_4)"/>
</svg>
