<svg width="1160" height="1244" viewBox="0 0 1160 1244" fill="none" xmlns="http://www.w3.org/2000/svg">
<g clip-path="url(#paint0_diamond_4_23_clip_path)" data-figma-skip-parse="true"><g transform="matrix(0 0.62 -0.578 0 580 622)"><rect x="0" y="0" width="1004.84" height="1005.19" fill="url(#paint0_diamond_4_23)" opacity="1" shape-rendering="crispEdges"/><rect x="0" y="0" width="1004.84" height="1005.19" transform="scale(1 -1)" fill="url(#paint0_diamond_4_23)" opacity="1" shape-rendering="crispEdges"/><rect x="0" y="0" width="1004.84" height="1005.19" transform="scale(-1 1)" fill="url(#paint0_diamond_4_23)" opacity="1" shape-rendering="crispEdges"/><rect x="0" y="0" width="1004.84" height="1005.19" transform="scale(-1)" fill="url(#paint0_diamond_4_23)" opacity="1" shape-rendering="crispEdges"/></g></g><path d="M1017.78 48.8804L1019.27 48.7029L1019.27 48.7029L1017.78 48.8804ZM1037.3 4.03047L1038.25 2.87336L1038.25 2.87336L1037.3 4.03047ZM1056.48 459.659L1057.96 459.917L1057.96 459.917L1056.48 459.659ZM1058.23 388.354L1056.74 388.532L1056.74 388.532L1058.23 388.354ZM1011.38 724.998L1012.87 725.109L1012.87 725.109L1011.38 724.998ZM1014.16 702.355L1012.68 702.098L1012.68 702.098L1014.16 702.355ZM993.929 876.713L995.343 877.212L995.343 877.212L993.929 876.713ZM1003.84 826.118L1002.35 826.007L1002.35 826.007L1003.84 826.118ZM883.962 1240.67L884.917 1239.51L884.917 1239.51L883.962 1240.67ZM879.46 1201.08L878.046 1200.58L878.046 1200.58L879.46 1201.08ZM893.643 1236.69L892.315 1235.99L892.315 1235.99L893.643 1236.69ZM1067.77 806.458L1069.21 806.009L1069.21 806.009L1067.77 806.458ZM1061.85 917.46L1063.17 918.16L1063.17 918.16L1061.85 917.46ZM1074.26 694.413L1072.95 693.689L1072.95 693.689L1074.26 694.413ZM1151.33 432.272L1149.87 432.645L1149.87 432.645L1151.33 432.272ZM1140.26 574.579L1141.58 575.302L1141.58 575.302L1140.26 574.579ZM1045.3 19.4129L1046.75 19.0398L1046.75 19.0398L1045.3 19.4129ZM149.705 920.577L151.163 920.225L151.163 920.225L149.705 920.577ZM129.147 943.942L128.58 945.331L128.58 945.331L129.147 943.942ZM108.938 706.574L107.523 706.076L108.938 706.574ZM107.094 743.722L105.635 744.073L105.635 744.073L107.094 743.722ZM156.452 568.341L154.968 568.118L154.968 568.118L156.452 568.341ZM153.522 580.138L154.937 580.636L153.522 580.138ZM174.829 489.303L173.608 488.432L173.608 488.432L174.829 489.303ZM164.388 515.661L165.871 515.885L164.388 515.661ZM290.666 299.695L291.233 298.306L290.666 299.695ZM295.409 320.318L296.63 321.189L296.63 321.189L295.409 320.318ZM280.469 301.766L279.443 300.672L280.469 301.766ZM97.0425 525.903L98.3091 525.1L97.0425 525.903ZM103.285 468.075L104.312 469.168L104.312 469.168L103.285 468.075ZM90.2085 584.275L89.2063 583.159L89.2063 583.159L90.2085 584.275ZM9.03123 720.842L10.3624 720.151L10.3624 720.151L9.03123 720.842ZM20.6835 646.705L21.6857 647.821L21.6857 647.821L20.6835 646.705ZM120.719 935.928L119.388 936.62L119.388 936.62L120.719 935.928ZM1045.3 19.4129L1043.84 19.786L1149.87 432.645L1151.33 432.272L1152.78 431.899L1046.75 19.0398L1045.3 19.4129ZM1140.26 574.579L1138.95 573.855L1072.95 693.689L1074.26 694.413L1075.58 695.137L1141.58 575.302L1140.26 574.579ZM1061.85 917.46L1060.52 916.761L892.315 1235.99L893.643 1236.69L894.97 1237.39L1063.17 918.16L1061.85 917.46ZM879.46 1201.08L880.875 1201.58L995.343 877.212L993.929 876.713L992.514 876.214L878.046 1200.58L879.46 1201.08ZM1003.84 826.118L1005.34 826.229L1012.87 725.109L1011.38 724.998L1009.88 724.886L1002.35 826.007L1003.84 826.118ZM1014.16 702.355L1015.63 702.613L1057.96 459.917L1056.48 459.659L1055 459.401L1012.68 702.098L1014.16 702.355ZM1058.23 388.354L1059.72 388.177L1019.27 48.7029L1017.78 48.8804L1016.29 49.0578L1056.74 388.532L1058.23 388.354ZM1017.78 48.8804L1019.27 48.7029C1017.6 34.6641 1019.56 21.331 1023.28 12.7719C1025.16 8.4617 1027.39 5.57588 1029.62 4.28375C1030.7 3.65579 1031.77 3.41345 1032.82 3.5272C1033.88 3.64187 1035.06 4.13278 1036.34 5.18758L1037.3 4.03047L1038.25 2.87336C1036.62 1.53106 1034.91 0.735151 1033.14 0.54452C1031.37 0.352966 1029.67 0.786815 1028.11 1.68774C1025.07 3.45339 1022.51 7.03611 1020.53 11.5749C1016.55 20.7135 1014.57 34.5996 1016.29 49.0578L1017.78 48.8804ZM1056.48 459.659L1057.96 459.917C1061.92 437.18 1062.54 411.87 1059.72 388.177L1058.23 388.354L1056.74 388.532C1059.53 411.946 1058.92 436.962 1055 459.401L1056.48 459.659ZM1011.38 724.998L1012.87 725.109C1013.45 717.384 1014.37 709.84 1015.63 702.613L1014.16 702.355L1012.68 702.098C1011.4 709.426 1010.46 717.069 1009.88 724.886L1011.38 724.998ZM993.929 876.713L995.343 877.212C1000.5 862.611 1003.94 845.018 1005.34 826.229L1003.84 826.118L1002.35 826.007C1000.96 844.587 997.562 861.911 992.514 876.214L993.929 876.713ZM883.962 1240.67L884.917 1239.51C883.486 1238.33 882.171 1236.25 881.103 1233.44C880.045 1230.64 879.279 1227.25 878.862 1223.58C878.026 1216.23 878.615 1207.98 880.875 1201.58L879.46 1201.08L878.046 1200.58C875.6 1207.51 875.007 1216.23 875.881 1223.92C876.32 1227.77 877.132 1231.42 878.298 1234.5C879.453 1237.55 881.005 1240.17 883.008 1241.82L883.962 1240.67ZM893.643 1236.69L892.315 1235.99C891.023 1238.45 889.644 1239.77 888.442 1240.26C887.367 1240.7 886.208 1240.57 884.917 1239.51L883.962 1240.67L883.008 1241.82C885.014 1243.48 887.326 1243.96 889.581 1243.04C891.711 1242.16 893.523 1240.14 894.97 1237.39L893.643 1236.69ZM1067.77 806.458L1066.34 806.907C1071.72 824.058 1073.78 844.896 1072.71 864.804C1071.65 884.729 1067.47 903.565 1060.52 916.761L1061.85 917.46L1063.17 918.16C1070.4 904.443 1074.63 885.134 1075.71 864.964C1076.79 844.778 1074.71 823.571 1069.21 806.009L1067.77 806.458ZM1074.26 694.413L1072.95 693.689C1065.48 707.246 1061.07 726.692 1059.88 747.097C1058.7 767.522 1060.75 789.076 1066.34 806.907L1067.77 806.458L1069.21 806.009C1063.74 788.594 1061.71 767.414 1062.88 747.271C1064.05 727.109 1068.41 708.155 1075.58 695.137L1074.26 694.413ZM1151.33 432.272L1149.87 432.645C1155.89 456.062 1157.71 483.125 1155.74 508.491C1153.77 533.876 1148 557.42 1138.95 573.855L1140.26 574.579L1141.58 575.302C1150.91 558.357 1156.74 534.347 1158.73 508.724C1160.72 483.081 1158.89 455.681 1152.78 431.899L1151.33 432.272ZM1045.3 19.4129L1046.75 19.0398C1044.87 11.7265 1041.94 5.91709 1038.25 2.87336L1037.3 4.03047L1036.34 5.18758C1039.3 7.62658 1042.02 12.6884 1043.84 19.786L1045.3 19.4129ZM120.719 935.928L122.05 935.237L10.3624 720.151L9.03123 720.842L7.7 721.534L119.388 936.62L120.719 935.928ZM20.6835 646.705L21.6857 647.821L91.2107 585.391L90.2085 584.275L89.2063 583.159L19.6813 645.589L20.6835 646.705ZM103.285 468.075L104.312 469.168L281.496 302.859L280.469 301.766L279.443 300.672L102.258 466.981L103.285 468.075ZM295.409 320.318L294.188 319.447L173.608 488.432L174.829 489.303L176.051 490.174L296.63 321.189L295.409 320.318ZM164.388 515.661L162.905 515.438L154.968 568.118L156.452 568.341L157.935 568.565L165.871 515.885L164.388 515.661ZM153.522 580.138L152.108 579.639L107.523 706.076L108.938 706.574L110.352 707.073L154.937 580.636L153.522 580.138ZM107.094 743.722L105.635 744.073L148.246 920.928L149.705 920.577L151.163 920.225L108.552 743.37L107.094 743.722ZM149.705 920.577L148.246 920.928C149.922 927.881 147.963 934.47 144.233 938.709C140.518 942.931 135.139 944.767 129.714 942.553L129.147 943.942L128.58 945.331C135.399 948.113 142.087 945.689 146.485 940.691C150.867 935.71 153.065 928.118 151.163 920.225L149.705 920.577ZM108.938 706.574L107.523 706.076C103.276 718.12 102.612 731.524 105.635 744.073L107.094 743.722L108.552 743.37C105.663 731.378 106.3 718.564 110.352 707.073L108.938 706.574ZM156.452 568.341L154.968 568.118C154.372 572.075 153.413 575.938 152.108 579.639L153.522 580.138L154.937 580.636C156.306 576.754 157.311 572.706 157.935 568.565L156.452 568.341ZM174.829 489.303L173.608 488.432C168.09 496.165 164.404 505.485 162.905 515.438L164.388 515.661L165.871 515.885C167.305 506.369 170.824 497.498 176.051 490.174L174.829 489.303ZM290.666 299.695L290.099 301.084C293.162 302.333 295.328 305.283 296.147 308.844C296.964 312.399 296.386 316.366 294.188 319.447L295.409 320.318L296.63 321.189C299.388 317.324 300.055 312.455 299.07 308.172C298.087 303.896 295.402 300.007 291.233 298.306L290.666 299.695ZM280.469 301.766L281.496 302.859C283.984 300.524 287.206 299.903 290.099 301.084L290.666 299.695L291.233 298.306C287.179 296.652 282.726 297.59 279.443 300.672L280.469 301.766ZM97.0425 525.903L98.3091 525.1C87.1971 507.583 89.9332 482.664 104.312 469.168L103.285 468.075L102.258 466.981C86.7614 481.527 83.9439 508.055 95.7758 526.707L97.0425 525.903ZM90.2085 584.275L91.2107 585.391C107.213 571.022 110.32 544.034 98.3091 525.1L97.0425 525.903L95.7758 526.707C107.06 544.495 104.04 569.839 89.2063 583.159L90.2085 584.275ZM9.03123 720.842L10.3624 720.151C-2.11952 696.113 2.87289 664.714 21.6857 647.821L20.6835 646.705L19.6813 645.589C-0.238923 663.476 -5.35509 696.392 7.7 721.534L9.03123 720.842ZM120.719 935.928L119.388 936.62C121.48 940.649 124.711 943.752 128.58 945.331L129.147 943.942L129.714 942.553C126.582 941.276 123.856 938.715 122.05 935.237L120.719 935.928Z" data-figma-gradient-fill="{&#34;type&#34;:&#34;GRADIENT_DIAMOND&#34;,&#34;stops&#34;:[{&#34;color&#34;:{&#34;r&#34;:0.80003505945205688,&#34;g&#34;:0.80003505945205688,&#34;b&#34;:0.80003505945205688,&#34;a&#34;:1.0},&#34;position&#34;:0.99989998340606689},{&#34;color&#34;:{&#34;r&#34;:0.40003505349159241,&#34;g&#34;:0.40003505349159241,&#34;b&#34;:0.40003505349159241,&#34;a&#34;:1.0},&#34;position&#34;:1.0}],&#34;stopsVar&#34;:[{&#34;color&#34;:{&#34;r&#34;:0.80003505945205688,&#34;g&#34;:0.80003505945205688,&#34;b&#34;:0.80003505945205688,&#34;a&#34;:1.0},&#34;position&#34;:0.99989998340606689},{&#34;color&#34;:{&#34;r&#34;:0.40003505349159241,&#34;g&#34;:0.40003505349159241,&#34;b&#34;:0.40003505349159241,&#34;a&#34;:1.0},&#34;position&#34;:1.0}],&#34;transform&#34;:{&#34;m00&#34;:7.0784585061867827e-14,&#34;m01&#34;:-1156.0,&#34;m02&#34;:1158.0,&#34;m10&#34;:1240.0001220703125,&#34;m11&#34;:7.5928114707038419e-14,&#34;m12&#34;:2.0},&#34;opacity&#34;:1.0,&#34;blendMode&#34;:&#34;NORMAL&#34;,&#34;visible&#34;:true}"/>
<defs>
<clipPath id="paint0_diamond_4_23_clip_path"><path d="M1017.78 48.8804L1019.27 48.7029L1019.27 48.7029L1017.78 48.8804ZM1037.3 4.03047L1038.25 2.87336L1038.25 2.87336L1037.3 4.03047ZM1056.48 459.659L1057.96 459.917L1057.96 459.917L1056.48 459.659ZM1058.23 388.354L1056.74 388.532L1056.74 388.532L1058.23 388.354ZM1011.38 724.998L1012.87 725.109L1012.87 725.109L1011.38 724.998ZM1014.16 702.355L1012.68 702.098L1012.68 702.098L1014.16 702.355ZM993.929 876.713L995.343 877.212L995.343 877.212L993.929 876.713ZM1003.84 826.118L1002.35 826.007L1002.35 826.007L1003.84 826.118ZM883.962 1240.67L884.917 1239.51L884.917 1239.51L883.962 1240.67ZM879.46 1201.08L878.046 1200.58L878.046 1200.58L879.46 1201.08ZM893.643 1236.69L892.315 1235.99L892.315 1235.99L893.643 1236.69ZM1067.77 806.458L1069.21 806.009L1069.21 806.009L1067.77 806.458ZM1061.85 917.46L1063.17 918.16L1063.17 918.16L1061.85 917.46ZM1074.26 694.413L1072.95 693.689L1072.95 693.689L1074.26 694.413ZM1151.33 432.272L1149.87 432.645L1149.87 432.645L1151.33 432.272ZM1140.26 574.579L1141.58 575.302L1141.58 575.302L1140.26 574.579ZM1045.3 19.4129L1046.75 19.0398L1046.75 19.0398L1045.3 19.4129ZM149.705 920.577L151.163 920.225L151.163 920.225L149.705 920.577ZM129.147 943.942L128.58 945.331L128.58 945.331L129.147 943.942ZM108.938 706.574L107.523 706.076L108.938 706.574ZM107.094 743.722L105.635 744.073L105.635 744.073L107.094 743.722ZM156.452 568.341L154.968 568.118L154.968 568.118L156.452 568.341ZM153.522 580.138L154.937 580.636L153.522 580.138ZM174.829 489.303L173.608 488.432L173.608 488.432L174.829 489.303ZM164.388 515.661L165.871 515.885L164.388 515.661ZM290.666 299.695L291.233 298.306L290.666 299.695ZM295.409 320.318L296.63 321.189L296.63 321.189L295.409 320.318ZM280.469 301.766L279.443 300.672L280.469 301.766ZM97.0425 525.903L98.3091 525.1L97.0425 525.903ZM103.285 468.075L104.312 469.168L104.312 469.168L103.285 468.075ZM90.2085 584.275L89.2063 583.159L89.2063 583.159L90.2085 584.275ZM9.03123 720.842L10.3624 720.151L10.3624 720.151L9.03123 720.842ZM20.6835 646.705L21.6857 647.821L21.6857 647.821L20.6835 646.705ZM120.719 935.928L119.388 936.62L119.388 936.62L120.719 935.928ZM1045.3 19.4129L1043.84 19.786L1149.87 432.645L1151.33 432.272L1152.78 431.899L1046.75 19.0398L1045.3 19.4129ZM1140.26 574.579L1138.95 573.855L1072.95 693.689L1074.26 694.413L1075.58 695.137L1141.58 575.302L1140.26 574.579ZM1061.85 917.46L1060.52 916.761L892.315 1235.99L893.643 1236.69L894.97 1237.39L1063.17 918.16L1061.85 917.46ZM879.46 1201.08L880.875 1201.58L995.343 877.212L993.929 876.713L992.514 876.214L878.046 1200.58L879.46 1201.08ZM1003.84 826.118L1005.34 826.229L1012.87 725.109L1011.38 724.998L1009.88 724.886L1002.35 826.007L1003.84 826.118ZM1014.16 702.355L1015.63 702.613L1057.96 459.917L1056.48 459.659L1055 459.401L1012.68 702.098L1014.16 702.355ZM1058.23 388.354L1059.72 388.177L1019.27 48.7029L1017.78 48.8804L1016.29 49.0578L1056.74 388.532L1058.23 388.354ZM1017.78 48.8804L1019.27 48.7029C1017.6 34.6641 1019.56 21.331 1023.28 12.7719C1025.16 8.4617 1027.39 5.57588 1029.62 4.28375C1030.7 3.65579 1031.77 3.41345 1032.82 3.5272C1033.88 3.64187 1035.06 4.13278 1036.34 5.18758L1037.3 4.03047L1038.25 2.87336C1036.62 1.53106 1034.91 0.735151 1033.14 0.54452C1031.37 0.352966 1029.67 0.786815 1028.11 1.68774C1025.07 3.45339 1022.51 7.03611 1020.53 11.5749C1016.55 20.7135 1014.57 34.5996 1016.29 49.0578L1017.78 48.8804ZM1056.48 459.659L1057.96 459.917C1061.92 437.18 1062.54 411.87 1059.72 388.177L1058.23 388.354L1056.74 388.532C1059.53 411.946 1058.92 436.962 1055 459.401L1056.48 459.659ZM1011.38 724.998L1012.87 725.109C1013.45 717.384 1014.37 709.84 1015.63 702.613L1014.16 702.355L1012.68 702.098C1011.4 709.426 1010.46 717.069 1009.88 724.886L1011.38 724.998ZM993.929 876.713L995.343 877.212C1000.5 862.611 1003.94 845.018 1005.34 826.229L1003.84 826.118L1002.35 826.007C1000.96 844.587 997.562 861.911 992.514 876.214L993.929 876.713ZM883.962 1240.67L884.917 1239.51C883.486 1238.33 882.171 1236.25 881.103 1233.44C880.045 1230.64 879.279 1227.25 878.862 1223.58C878.026 1216.23 878.615 1207.98 880.875 1201.58L879.46 1201.08L878.046 1200.58C875.6 1207.51 875.007 1216.23 875.881 1223.92C876.32 1227.77 877.132 1231.42 878.298 1234.5C879.453 1237.55 881.005 1240.17 883.008 1241.82L883.962 1240.67ZM893.643 1236.69L892.315 1235.99C891.023 1238.45 889.644 1239.77 888.442 1240.26C887.367 1240.7 886.208 1240.57 884.917 1239.51L883.962 1240.67L883.008 1241.82C885.014 1243.48 887.326 1243.96 889.581 1243.04C891.711 1242.16 893.523 1240.14 894.97 1237.39L893.643 1236.69ZM1067.77 806.458L1066.34 806.907C1071.72 824.058 1073.78 844.896 1072.71 864.804C1071.65 884.729 1067.47 903.565 1060.52 916.761L1061.85 917.46L1063.17 918.16C1070.4 904.443 1074.63 885.134 1075.71 864.964C1076.79 844.778 1074.71 823.571 1069.21 806.009L1067.77 806.458ZM1074.26 694.413L1072.95 693.689C1065.48 707.246 1061.07 726.692 1059.88 747.097C1058.7 767.522 1060.75 789.076 1066.34 806.907L1067.77 806.458L1069.21 806.009C1063.74 788.594 1061.71 767.414 1062.88 747.271C1064.05 727.109 1068.41 708.155 1075.58 695.137L1074.26 694.413ZM1151.33 432.272L1149.87 432.645C1155.89 456.062 1157.71 483.125 1155.74 508.491C1153.77 533.876 1148 557.42 1138.95 573.855L1140.26 574.579L1141.58 575.302C1150.91 558.357 1156.74 534.347 1158.73 508.724C1160.72 483.081 1158.89 455.681 1152.78 431.899L1151.33 432.272ZM1045.3 19.4129L1046.75 19.0398C1044.87 11.7265 1041.94 5.91709 1038.25 2.87336L1037.3 4.03047L1036.34 5.18758C1039.3 7.62658 1042.02 12.6884 1043.84 19.786L1045.3 19.4129ZM120.719 935.928L122.05 935.237L10.3624 720.151L9.03123 720.842L7.7 721.534L119.388 936.62L120.719 935.928ZM20.6835 646.705L21.6857 647.821L91.2107 585.391L90.2085 584.275L89.2063 583.159L19.6813 645.589L20.6835 646.705ZM103.285 468.075L104.312 469.168L281.496 302.859L280.469 301.766L279.443 300.672L102.258 466.981L103.285 468.075ZM295.409 320.318L294.188 319.447L173.608 488.432L174.829 489.303L176.051 490.174L296.63 321.189L295.409 320.318ZM164.388 515.661L162.905 515.438L154.968 568.118L156.452 568.341L157.935 568.565L165.871 515.885L164.388 515.661ZM153.522 580.138L152.108 579.639L107.523 706.076L108.938 706.574L110.352 707.073L154.937 580.636L153.522 580.138ZM107.094 743.722L105.635 744.073L148.246 920.928L149.705 920.577L151.163 920.225L108.552 743.37L107.094 743.722ZM149.705 920.577L148.246 920.928C149.922 927.881 147.963 934.47 144.233 938.709C140.518 942.931 135.139 944.767 129.714 942.553L129.147 943.942L128.58 945.331C135.399 948.113 142.087 945.689 146.485 940.691C150.867 935.71 153.065 928.118 151.163 920.225L149.705 920.577ZM108.938 706.574L107.523 706.076C103.276 718.12 102.612 731.524 105.635 744.073L107.094 743.722L108.552 743.37C105.663 731.378 106.3 718.564 110.352 707.073L108.938 706.574ZM156.452 568.341L154.968 568.118C154.372 572.075 153.413 575.938 152.108 579.639L153.522 580.138L154.937 580.636C156.306 576.754 157.311 572.706 157.935 568.565L156.452 568.341ZM174.829 489.303L173.608 488.432C168.09 496.165 164.404 505.485 162.905 515.438L164.388 515.661L165.871 515.885C167.305 506.369 170.824 497.498 176.051 490.174L174.829 489.303ZM290.666 299.695L290.099 301.084C293.162 302.333 295.328 305.283 296.147 308.844C296.964 312.399 296.386 316.366 294.188 319.447L295.409 320.318L296.63 321.189C299.388 317.324 300.055 312.455 299.07 308.172C298.087 303.896 295.402 300.007 291.233 298.306L290.666 299.695ZM280.469 301.766L281.496 302.859C283.984 300.524 287.206 299.903 290.099 301.084L290.666 299.695L291.233 298.306C287.179 296.652 282.726 297.59 279.443 300.672L280.469 301.766ZM97.0425 525.903L98.3091 525.1C87.1971 507.583 89.9332 482.664 104.312 469.168L103.285 468.075L102.258 466.981C86.7614 481.527 83.9439 508.055 95.7758 526.707L97.0425 525.903ZM90.2085 584.275L91.2107 585.391C107.213 571.022 110.32 544.034 98.3091 525.1L97.0425 525.903L95.7758 526.707C107.06 544.495 104.04 569.839 89.2063 583.159L90.2085 584.275ZM9.03123 720.842L10.3624 720.151C-2.11952 696.113 2.87289 664.714 21.6857 647.821L20.6835 646.705L19.6813 645.589C-0.238923 663.476 -5.35509 696.392 7.7 721.534L9.03123 720.842ZM120.719 935.928L119.388 936.62C121.48 940.649 124.711 943.752 128.58 945.331L129.147 943.942L129.714 942.553C126.582 941.276 123.856 938.715 122.05 935.237L120.719 935.928Z"/></clipPath><linearGradient id="paint0_diamond_4_23" x1="0" y1="0" x2="500" y2="500" gradientUnits="userSpaceOnUse">
<stop offset="0.9999" stop-color="#CCCCCC"/>
<stop offset="1" stop-color="#666666"/>
</linearGradient>
</defs>
</svg>
